<svg width="385" height="196" viewBox="0 0 385 196" fill="none" xmlns="http://www.w3.org/2000/svg">
<path d="M87.9589 19.1489C69.1549 19.1489 55.2556 13.4345 34.7575 8.09575C24.8312 5.51045 19.1171 -2.65499 9.5327 0.868664C-1.2017 4.81512 -2.39196 14.0475 3.57037 24.6756C9.53271 35.3037 22.8331 41.6805 22.8331 60.3859C22.8331 79.0912 3.57048 71.4391 3.57048 90.1444C3.57048 108.85 34.7575 116.927 34.7575 131.806C34.7575 146.686 5.86365 177.295 22.8331 186.647C39.8025 196 29.7977 178.572 48.9751 178.145C68.1525 177.717 53.4196 188.914 76.0344 186.647C98.6492 184.38 87.9589 169.217 115.935 169.217C143.912 169.217 131.07 186.647 157.212 186.647C183.354 186.647 187.024 169.217 216.376 169.217C245.728 169.217 241.601 196 273.705 196C305.809 196 288.84 183.671 314.982 176.444C341.124 169.217 368.642 204.077 381.942 186.647C395.243 169.217 360.845 168.792 360.845 146.686C360.845 124.579 371.852 128.405 371.852 105.024C371.852 81.642 355.342 79.0912 352.131 60.3859C348.921 41.6805 371.852 19.1489 360.845 8.09575C349.838 -2.95744 346.169 19.1489 326.906 19.1489C307.644 19.1489 301.682 0.868664 273.705 0.868664C245.728 0.868664 241.601 19.1489 216.376 19.1489C191.151 19.1489 176.016 8.09575 150.333 8.09575C124.649 8.09575 106.763 19.1489 87.9589 19.1489Z" fill="#E2E8F0"/>
</svg>
